<svg xmlns="http://www.w3.org/2000/svg" viewBox="0 0 640 480">
 <defs fill="#000000">
  <radialGradient id="a" cx="246.85" cy="165.75" r="280.09" gradientTransform="matrix(1.9371 0 0 1.9254 -334.82 -184.19)" gradientUnits="userSpaceOnUse" fill="#000000">
   <stop stop-color="#5e6700" offset="0" fill="#000000"/>
   <stop stop-color="#005f00" offset="1" fill="#000000"/>
  </radialGradient>
 </defs>
 <path d="m289.89 502.08c-14.667-1.6566-31.941-5.0529-32.804-6.4497-0.52371-0.84738 1.8634-2.087 5.3045-2.7548 8.2308-1.5973 8.3723-1.5977 20.96-0.058319 7.1575 0.87528 11.286 0.60376 12.154-0.79935 0.92554-1.4976 3.5747-1.2202 8.9719 0.93936 6.8673 2.7477 12.236 2.876 21.142 0.50531 1.693-0.45062 2.6633 0.33057 2.335 1.8798-0.3949 1.8635 0.46564 2.2172 2.8968 1.1909 1.9022-0.80301 6.0657-1.3193 9.2522-1.1472l5.7936 0.3128-4.6541-3.278-4.6541-3.2779 4.4203-1.6352c2.82-1.0432 5.3949-0.82638 7.1124 0.59909 3.4553 2.8676 27.215 0.82181 36.757-3.1649 3.7806-1.5796 9.5921-2.9028 12.914-2.9405 3.3223-0.037598 8.2132-1.3104 10.869-2.8283 5.3673-3.0682 9.656-3.6879 9.656-1.3954 0 1.7405-18.934 10.174-35.727 15.914-22.806 7.7946-64.528 11.57-92.698 8.3885zm51.584-30.992c-6.9378-2.8504-10.815-9.7429-7.673-13.641 1.3721-1.7028 1.1644-2.4227-0.70523-2.4436-1.8625-0.020844-1.9891-0.45138-0.42581-1.4484 1.2236-0.78036 2.8138-5.764 3.534-11.075 0.72006-5.3108 2.4443-13.567 3.8316-18.346 1.3872-4.7798 2.5089-10.428 2.4926-12.553-0.031494-4.0916 1.6602-16.975 3.6339-27.674 1.5814-8.5728-2.2284-15.223-11.403-19.903-4.0694-2.076-7.8717-5.2562-8.4496-7.067-2.8708-8.9955-9.5479-22.462-14.869-29.987-5.1945-7.3462-1.6484-23.044 6.9371-30.709 5.181-4.6255 6.0662-6.648 5.548-12.674-0.33917-3.9436-1.3179-7.6048-2.175-8.1359-0.85709-0.53104-1.6414-1.8346-1.7428-2.8968-0.10138-1.0621-1.2707-1.9312-2.5984-1.9312s-2.2045 1.0631-1.9485 2.3623c0.60391 3.0643-10.974 0.92377-14.596-2.6985-1.4083-1.4083-3.3675-2.5606-4.3539-2.5606-0.98627 0-1.7932-1.152-1.7932-2.5602 0-4.1381-8.1545-10.432-15.45-11.924-3.7175-0.76042-8.664-3.1308-10.992-5.2676-2.8376-2.6044-7.4609-4.0592-14.026-4.4134-10.062-0.54291-20.41-5.4688-18.382-8.7502 0.62891-1.0176-1.4594-1.8464-4.6525-1.8464-7.2354 0-9.4667-3.2373-4.7665-6.9157 1.9652-1.538 2.6266-2.5664 1.4699-2.2855-1.7532 0.42575-9.176-7.1134-14.708-14.939-0.7509-1.0621-4.006-4.9728-7.2336-8.6904l-5.8684-6.7592 3.0281 6.2764c1.6655 3.452 3.8062 6.2764 4.7573 6.2764 0.951 0 1.2626 1.2157 0.6925 2.7015-0.57016 1.4858-0.1084 3.2752 1.0262 3.9764 1.1346 0.70123 2.0629 2.6619 2.0629 4.3571 0 2.6843-0.49855 2.631-3.8624-0.41327-2.1243-1.9225-3.8624-4.6916-3.8624-6.1535 0-1.462-1.3295-3.1683-2.9543-3.7918-1.8041-0.69229-2.5254-2.4852-1.8526-4.6049 0.60591-1.9092 0.19725-4.0302-0.90808-4.7133-1.1053-0.68317-2.0098-2.802-2.0098-4.7085s-2.0936-5.7254-4.6524-8.4865c-7.0979-7.6587-9.0504-20.028-4.8114-30.479 3.8921-9.596 4.645-17.207 1.7023-17.207-1.111 0-1.4633-2.0109-0.80914-4.6173 0.63739-2.5395 0.21942-5.198-0.92882-5.9076-1.1551-0.71393-2.0877 0.054626-2.0877 1.7205 0 1.6559-0.90195 3.0108-2.0043 3.0108s-1.8363-1.9553-1.6309-4.3452c0.70871-8.2461-0.23885-11.104-3.6813-11.104-4.3854 0-18.008 6.8858-20.001 10.109-0.83052 1.3439-2.1936 2.454-3.0289 2.4668-0.83536 0.012871-5.5363 2.803-10.446 6.2002-4.9102 3.3973-9.4378 5.6666-10.062 5.0429-0.62369-0.62366 1.6496-3.0098 5.0518-5.3025 3.4021-2.2927 6.4829-5.8761 6.846-7.9631 0.36316-2.087 3.8454-6.6169 7.7382-10.066 3.8929-3.4496 5.4385-5.701 3.4348-5.0031-5.5476 1.9323-2.9237-3.6582 3.095-6.5942 2.7281-1.3308 5.4799-4.3725 6.115-6.7592 1.5267-5.7374 14.867-14.944 21.779-15.029 3.0167-0.037315 10.699-1.1758 17.072-2.5299 6.3729-1.3541 14.788-2.2457 18.7-1.9812 5.8458 0.39514 7.0659-0.14542 6.8483-3.0342-0.21472-2.8502-0.90414-3.1157-3.6456-1.4036-1.8596 1.1613-3.9788 1.5135-4.7096 0.78274-1.846-1.846 2.9345-7.2156 6.424-7.2156 1.6814 0 2.4324-1.1325 1.816-2.7386-0.69231-1.8042 1.3787-3.8083 6.0698-5.8735 3.9164-1.7241 5.3827-2.7389 3.2583-2.255-5.0973 1.1611-16.525 5.1643-20.734 7.2636-1.8444 0.91978-5.1033 1.6723-7.242 1.6723-2.1388 0-3.8886 0.76605-3.8886 1.7023 0 1.6782-13.765 7.2023-23.174 9.3001-4.1812 0.93218-3.9225 0.45396 1.9312-3.5696 20.912-14.374 39.501-22.288 68.153-29.016 14.69-3.4494 23.835-4.1867 52.547-4.2367 34.642-0.060345 60.632 3.0508 54.93 6.5753-1.4315 0.88472-3.3304 1.1588-4.2197 0.60915-0.8894-0.54962-10.642-1.2609-21.672-1.5806-16.833-0.4879-19.883-0.13386-18.986 2.2034 0.58771 1.5316 2.1578 2.3667 3.4892 1.8558 3.3159-1.2724 18.912 6.866 29.002 15.133 4.5754 3.7492 9.0499 6.8167 9.9434 6.8167 0.8934 0 2.7525 1.8064 4.1313 4.0142 2.1952 3.515 2.0366 4.1372-1.2749 5.0031-4.9726 1.3004-6.3295 9.1486-3.1431 18.18 1.4002 3.9685 2.1253 7.6358 1.6114 8.1497-1.7657 1.7657-13.178-5.1776-20.619-12.545-4.0974-4.0567-8.379-6.8017-9.5145-6.0999-1.14 0.70457-1.5081 0.37554-0.82184-0.73481 0.6835-1.1059-0.090851-3.1175-1.7207-4.4702s-2.5166-3.6238-1.9705-5.0468c0.5578-1.4537-0.27643-2.5874-1.904-2.5874-1.5932 0-3.397-1.3035-4.0084-2.8968-0.61145-1.5932-2.0366-2.8968-3.167-2.8968s-3.4656-1.2762-5.1892-2.8362c-2.3096-2.0901-4.6356-2.3878-8.8425-1.1316-3.1397 0.93749-4.5542 1.7792-3.1431 1.8706 4.1634 0.26936 17.99 15.402 17.392 19.036-0.30206 1.8366 0.02356 4.2498 0.72363 5.3627 0.70001 1.1129 0.48602 3.2855-0.47559 4.828-1.4859 2.3837-2.9883 2.1517-10.011-1.546-4.5447-2.3928-9.7326-4.3481-11.529-4.3452-4.3754 0.007179-6.4027-3.603-2.7997-4.9856 1.5784-0.60571 3.3661-2.3945 3.9726-3.9751 0.82758-2.1567 0.14197-2.5688-2.7474-1.6517-2.8358 0.90004-3.8503 0.33965-3.8503-2.1268 0-1.8419-0.57184-2.777-1.2707-2.0781-0.69894 0.6989-2.2198 0.48342-3.3796-0.47882-1.4564-1.2082-2.1016 0.337-2.0853 4.9938 0.015533 4.4092 1.1994 7.4014 3.4203 8.6442 1.8681 1.0454 2.9897 2.5592 2.4923 3.3639-0.49731 0.80467 1.4398 1.1226 4.3046 0.70655 3.5128-0.51021 8.0385 1.1545 13.899 5.1126 6.6996 4.5246 8.8334 5.2204 9.3148 3.0372 0.95196-4.3174 2.7588-3.5088 10.985 4.9157 4.1609 4.2612 8.411 7.4658 9.4445 7.1213 2.1789-0.72629 7.219 3.9757 11.869 11.073 3.2537 4.9658 7.9752 7.0844 5.6674 2.5431-0.67462-1.3277 0.57761-0.36236 2.7828 2.1452 2.2053 2.5075 3.9962 5.9837 3.98 7.7248-0.025635 2.7494-0.27573 2.7848-1.9016 0.26883-1.664-2.5749-1.8923-2.5749-2.054 0-0.12497 1.9881-0.48767 2.1396-1.1562 0.48282-1.5571-3.8591-9.9271-3.019-9.6108 0.96469 0.16986 2.1394-1.3256 3.6054-4.077 3.9967-2.3899 0.33994-4.3452 1.541-4.3452 2.6692 0 1.2782-2.9109 1.6607-7.7248 1.015-6.3076-0.84605-7.7327-0.44978-7.7678 2.1597-0.02356 1.7577-1.7424 5.3684-3.8195 8.0238-2.077 2.6554-3.7958 6.0207-3.8195 7.4785-0.036377 2.2465-0.55298 2.2465-3.3892 0-3.1044-2.4589-3.0986-2.2626 0.080261 2.7149 3.7744 5.9101 3.124 7.8626-4.8568 14.578-5.4482 4.5844-7.225 12.494-3.3453 14.892 2.837 1.7533 5.9514 10.469 4.5508 12.735-1.6745 2.7094-6.753-2.0847-9.7152-9.1713-1.8304-4.3787-4.1826-6.352-8.6327-7.242-9.4888-1.8978-13.359-1.4654-13.359 1.4926 0 1.7468-1.3508 2.3628-3.7854 1.7261-4.3728-1.1435-16.12 5.5485-20.356 11.596-3.7201 5.3113-3.6715 11.676 0.15064 19.731 3.5563 7.4942 6.4366 8.9732 14.381 7.3844 3.976-0.79524 6.1588-2.599 6.9474-5.7411 0.63251-2.5199 2.142-4.6481 3.3546-4.7294 1.2126-0.081253 3.722-0.43837 5.5766-0.79358 5.0378-0.96494 5.8454 2.0453 2.3582 8.7889-1.715 3.3164-2.6271 6.5209-2.0269 7.1211 0.60013 0.60017 0.093872 2.2929-1.125 3.7617-1.8353 2.2114-0.96298 2.5323 5.0746 1.867 11.958-1.3178 14.322 0.057861 14.209 8.2692-0.19128 13.86 4.3111 19.631 12.074 15.476 2.5596-1.3699 4.8894-1.3677 7.458 0.006927 4.9686 2.6591 5.199 2.6122 9.4202-1.9188 2.0076-2.1548 5.3004-4.2526 7.3172-4.6617 2.017-0.40912 5.3306-1.4009 7.3636-2.2039 2.5921-1.0238 3.2793-0.78497 2.3001 0.79938-0.76804 1.2427-0.47607 2.2594 0.64877 2.2594s2.0452-0.8175 2.0452-1.8167c0-0.99915 2.3275-0.6091 5.1724 0.86679 2.8448 1.4759 6.0207 2.1591 7.0576 1.5183 1.0368-0.64081 1.3262-0.26062 0.64298 0.84491-0.68329 1.1055 0.70331 2.5315 3.0812 3.1688 6.0771 1.6288 7.618 1.4863 6.3372-0.58624-0.61114-0.98877-0.093567-2.4266 1.15-3.1952 1.4121-0.87274 1.7436-0.56036 0.88306 0.83215-1.281 2.0728 1.4082 2.9941 8.0232 2.7484 1.3277-0.049316 2.4297 1.3346 2.4488 3.0754 0.048737 4.4309 13.211 14.829 20.623 16.292 7.4713 1.4752 14.104 6.8021 14.104 11.328 0 1.8256 0.92563 3.8914 2.057 4.5906 1.3459 0.83179 0.86292 2.7071-1.3972 5.4248-1.8998 2.2844-2.2273 3.0773-0.72781 1.7621 2.2122-1.9403 5.0379-1.1208 14.982 4.3452 6.7406 3.7051 13.829 6.7366 15.752 6.7366 1.9231 0 5.0164 1.6794 6.8741 3.7322 1.8576 2.0527 4.5995 3.2633 6.093 2.6902 1.9643-0.75372 2.7153 0.57416 2.7153 4.8006 0 4.1188-2.535 8.8124-8.5925 15.909-4.7258 5.5365-9.1808 12.777-9.9001 16.09-1.9833 9.1359-10.648 20.165-17.718 22.551-3.452 1.1652-6.2764 3.3347-6.2764 4.821 0 1.4864-2.3898 4.239-5.3108 6.1169s-6.8781 5.3529-8.7936 7.7223c-9.4841 11.731-19.817 19.959-24.116 19.204-3.3357-0.5863-4.2857 0.037292-3.8626 2.5354 0.60168 3.5514-3.5585 9.6999-6.5631 9.6999-1.003 0-6.5455 4.0766-12.317 9.0591-6.9703 6.0177-9.7171 9.5386-8.1818 10.487 1.6225 1.0028 0.90323 2.619-2.4137 5.4237-4.4297 3.7457-4.5137 4.1595-1.3453 6.6235 1.8588 1.4455 3.3796 3.0828 3.3796 3.6384 0 2.4493-7.2961 2.5246-13.111 0.13534zm-7.7698-332.16c-1.3941-0.55788-3.0598-0.48929-3.7014 0.15244-0.64172 0.64172 0.4989 1.0982 2.5347 1.0143 2.2498-0.092651 2.7074-0.55025 1.1668-1.1667zm13.088-8.759c0.037598-0.76332-1.2351-0.8876-2.8284-0.27622-1.6928 0.64957-2.9091 0.022369-2.9264-1.509-0.024109-2.1352-0.34839-2.117-1.7508 0.098343-1.044 1.649-0.89136 4.5405 0.38776 7.3479l2.1091 4.6289 2.4702-4.4511c1.3586-2.4481 2.5009-5.0756 2.5386-5.8388zm-61.73 5.4305c0-0.38596-1.9864-2.0033-4.4142-3.5941-3.9598-2.5945-4.8248-2.5599-8.4012 0.33608-3.8776 3.1399-3.7565 3.2385 4.4143 3.5941 4.6207 0.2011 8.4012 0.049866 8.4012-0.33606zm-4.6447-9.9411c-3.5043-2.5625-3.5128-2.7472-0.18414-4.0246 1.9189-0.73634 6.75-0.46839 10.736 0.59548 6.1479 1.641 7.0784 1.495 6.1354-0.96233-0.71948-1.875-0.32007-2.4075 1.1326-1.5097 1.2342 0.76281 3.7718 0.49728 5.639-0.5901 3.0833-1.7956 3.0183-1.9824-0.70892-2.0357-3.1457-0.044998-4.1038-1.2634-4.1038-5.2189 0-2.8381-1.6295-6.3517-3.621-7.808-1.9916-1.4562-3.4038-3.0448-3.1382-3.5302 1.3368-2.4434 0.16583-4.7449-2.414-4.7449-1.5933 0-2.8968-0.94144-2.8968-2.0921s-1.0863-1.7026-2.414-1.2266c-1.3277 0.47609-3.9558 0.072205-5.8402-0.8975-2.6602-1.369-4.5344-0.44594-8.3836 4.1285-2.7267 3.2404-5.6563 5.4598-6.5103 4.932-0.85406-0.52782-2.0472 0.32844-2.6513 1.9029-0.60416 1.5744-0.47797 2.6698 0.28043 2.4343 0.75839-0.23556 3.8074 2.0256 6.7756 5.0249 3.3766 3.412 6.5507 5.0103 8.4797 4.2701 3.9829-1.5284 10.652 0.57551 9.2121 2.906-0.60913 0.9857-2.4112 1.7922-4.0044 1.7922-1.6979 0-2.3265-0.92276-1.5189-2.2296 0.8606-1.3925 0.52902-1.7049-0.88309-0.83217-1.2436 0.76858-1.7612 2.2064-1.15 3.1952 0.61105 0.98876 0.19074 1.7978-0.93408 1.7978-1.1249 0-2.0452-0.86904-2.0452-1.9312 0-3.3978-7.2395-2.0644-8.173 1.5054-1.0614 4.0586 3.4365 9.1961 5.346 6.1064 0.85693-1.3866 1.9867-1.3858 3.6594 0.00248 1.3309 1.1045 2.9915 1.4364 3.6904 0.73749 0.69888-0.69889 1.2708-0.11198 1.2708 1.3042s0.65039 1.9246 1.4454 1.1296c0.79492-0.79495-0.20752-2.654-2.2277-4.1311zm14.301-10.403c0-0.99947 0.8591-2.3482 1.9091-2.9971 1.0948-0.67654 1.4185 0.09864 0.75897 1.8172-1.2838 3.3456-2.6681 3.9578-2.6681 1.1799zm-24.254-4.8806c-2.0618-1.5595-2.7335-2.863-1.4926-2.8968 3.6688-0.099899 8.3655 2.1501 8.3655 4.0076 0 2.531-2.6173 2.108-6.8729-1.1108zm64.809 18.836c0-0.22813-1.6468-1.2962-3.6596-2.3734-2.6092-1.3964-4.225-1.2773-5.6295 0.41482-1.4812 1.7848-0.57355 2.3734 3.6597 2.3734 3.0961 0 5.6294-0.18668 5.6294-0.41486zm-28.968-4.4132c0-1.0621-1.3549-1.9312-3.0108-1.9312s-2.4736 0.86906-1.8172 1.9312c0.65649 1.0622 2.0113 1.9312 3.0108 1.9312 0.99948 0 1.8172-0.86904 1.8172-1.9312zm6.7592 0c-0.65643-1.0621-1.5768-1.9312-2.0452-1.9312-0.46838 0-0.85162 0.86906-0.85162 1.9312 0 1.0622 0.92032 1.9312 2.0452 1.9312 1.1248 0 1.5081-0.86904 0.85162-1.9312zm-62.764-9.7203c-2.45-1.6377-2.0778-2.6613 2.414-6.637 2.921-2.5854 5.3108-5.7775 5.3108-7.0936s-1.2325-0.70738-2.7389 1.3528c-1.5064 2.0601-3.3893 3.0952-4.1842 2.3003-0.795-0.79498-0.43149-1.4454 0.80769-1.4454s2.2531-1.3035 2.2531-2.8968c0-3.7481-3.6539-3.7561-5.091-0.011086-0.60906 1.5871-1.8995 2.3961-2.8677 1.7978-0.96818-0.59841-1.2604-1.897-0.64929-2.8857 0.6111-0.98876 0.24205-1.7978-0.8201-1.7978s-2.4771 0.88325-3.1442 1.9627c-0.66716 1.0795-2.1148 1.4054-3.217 0.7242-1.292-0.79852-1.0731-1.8283 0.61629-2.8987 2.1335-1.3518 2.0821-1.653-0.27666-1.6214-3.6666 0.049202-13.439 5.5348-10.025 5.6272 1.3904 0.037621 2.0409 0.85642 1.4458 1.8195-0.59524 0.9631 0.8743 1.3432 3.2656 0.84456l4.3479-0.9065-4.4511 2.6596-4.4511 2.6597 5.365 2.4444c3.8701 1.7634 5.5662 1.8407 6.0873 0.27762 0.52127-1.5639 1.5015-1.5201 3.5227 0.1573 2.2569 1.8731 2.3142 2.6326 0.29498 3.9134-1.6319 1.0352-0.48546 1.5893 3.2882 1.5893 4.5113 0 5.1524-0.42858 2.8968-1.9364zm-7.3182-6.8976c-2.7595-2.9855-0.896-3.5569 3.1791-0.97475 1.4411 0.91312 1.8756 2.1122 0.96559 2.6646-0.91 0.55234-2.7751-0.20805-4.1447-1.6898zm75.81-0.4735c-1.0881-1.1455-4.7617 1.7577-4.7617 3.7631 0 1.0414 1.2159 0.7728 2.702-0.59676 1.4862-1.3696 2.413-2.7944 2.0597-3.1663zm-54.973 2.814c0-0.41744-1.3487-1.2765-2.9971-1.9091-1.7186-0.65948-2.4938-0.33575-1.8172 0.75898 1.1341 1.835 4.8143 2.7142 4.8143 1.1501zm-29.382-19.595c1.669-1.4534 0.71336-1.9697-3.4606-1.8696-3.1715 0.07605-7.2905 1.8197-9.1534 3.8747-3.3177 3.6601-3.3021 3.6661 0.76651 0.29545 4.3198-3.5788 7.8432-1.5916 5.4733 3.087-0.67259 1.3277-0.032242 1.1105 1.4228-0.4828 1.4551-1.5932 3.6833-3.8004 4.9514-4.9047zm15.864 2.8596c0-1.1249-0.86906-1.5081-1.9312-0.85165s-1.9312 1.5768-1.9312 2.0452c0 0.46842 0.86908 0.85162 1.9312 0.85162 1.0622 0 1.9312-0.92031 1.9312-2.0452zm-10.176-14.743c-1.879-0.48962-4.4861-0.45746-5.7936 0.071548-1.3074 0.52902 0.2299 0.92963 3.4164 0.89026 3.1865-0.039337 4.2563-0.47217 2.3772-0.96181zm15.055-2.1511c-0.5946-0.59457-2.1528-0.001213-3.4629 1.3186-1.8931 1.9073-1.6713 2.1291 1.081 1.0811 1.9046-0.72524 2.9765-1.8051 2.3818-2.3997zm22.158-2.4181c0-0.99949-0.72418-1.8172-1.6094-1.8172-0.88507 0-1.6092 1.2654-1.6092 2.8119s0.72418 2.3643 1.6092 1.8172c0.88519-0.54704 1.6094-1.8124 1.6094-2.8118zm-7.7462-3.7884c-1.1486-2.1463-1.4469-4.9707-0.66284-6.2764 0.89716-1.4941 0.19635-1.3766-1.8907 0.3168-3.1074 2.5214-3.1118 2.9167-0.07135 6.2764 4.2286 4.6726 5.2304 4.5517 2.6249-0.3168zm-9.7957 1.2772c-0.44254-0.38167-3.4118-1.2771-6.5982-1.9899-4.2311-0.94641-5.0124-0.76726-2.8968 0.66434 2.6078 1.7648 11.433 2.9968 9.4951 1.3255zm-17.22-5.2763c2.575-1.821 2.575-1.954 0-1.197-1.5933 0.46841-4.6349-0.042206-6.7592-1.1348-3.4527-1.7757-3.5813-1.6456-1.2119 1.2266 3.0863 3.7414 4.0539 3.8755 7.9712 1.1052zm9.656-2.6596c0-1.7944-1.1236-2.405-3.0588-1.6625-2.4627 0.94503-2.5568 1.4919-0.4828 2.8066 3.4301 2.1743 3.5416 2.1383 3.5416-1.1442zm50.984-1.0262c7.5872 0-0.17834-4.2341-8.5494-4.6615-5.0465-0.25764-9.0765-1.6605-10.547-3.6714-3.4414-4.7064-4.8506-4.0213-4.8506 2.3585 0 4.6019 0.67398 5.4366 3.7421 4.6342 2.0582-0.53824 5.7162 0.40411 8.1289 2.0941 2.8972 2.0293 5.0366 2.423 6.3002 1.1594 1.0523-1.0523 3.6514-1.9133 5.7757-1.9133zm-43.259 0c0-1.0622-0.92032-1.9312-2.0452-1.9312-1.1248 0-1.5081 0.86906-0.85162 1.9312 0.65649 1.0622 1.5768 1.9312 2.0452 1.9312 0.46841 0 0.85159-0.86903 0.85159-1.9312zm52.505-18.7c-1.394-0.55786-3.0598-0.48925-3.7014 0.15247-0.64178 0.64171 0.49887 1.0981 2.5347 1.0143 2.2498-0.092651 2.7073-0.55026 1.1668-1.1668zm51.189 423.02c-2.0593-2.0593 0.57455-4.5586 4.8041-4.5586 3.3232 0 3.5857 0.48108 1.5808 2.8968-2.5961 3.128-4.439 3.6077-6.3849 1.6618zm-207.01-46.977c-5.3108-6.1903-10.006-10.922-10.435-10.516-0.4283 0.40662-2.8399-2.0544-5.3592-5.4691-4.6844-6.3494-11.192-10.93-15.702-11.052-1.3904-0.037598-2.0124 0.76578-1.3822 1.7853 0.68443 1.1075-1.1892 1.0399-4.6536-0.16782-4.5254-1.5775-7.1355-4.8484-11.882-14.889-9.7817-20.693-9.8986-21.202-5.4145-23.602 2.2528-1.2057 3.4976-3.296 2.8962-4.8632-0.58012-1.5118-0.21299-2.7487 0.81582-2.7487s1.8706-1.3583 1.8706-3.0183c0-2.0215 1.4349-2.8187 4.3452-2.414 3.0143 0.41913 4.3528-0.38922 4.3698-2.6391 0.013557-1.7838 0.66532-3.884 1.4484-4.6671 0.78308-0.78308 1.4238-0.47891 1.4238 0.67587s2.6071 2.6723 5.7936 3.3721c3.1865 0.69989 5.7936 2.3676 5.7936 3.7059s2.3899 3.6313 5.3108 5.0954c2.9209 1.464 5.7898 2.922 6.3753 3.2398 0.58546 0.31772 0.70764-2.4788 0.27152-6.2145-0.97159-8.3223 2.6699-9.1381 4.4576-0.99857 0.69988 3.1865 2.0051 5.7936 2.9005 5.7936 0.89542 0 2.6928 3.2589 3.9943 7.242s4.1933 9.1155 6.4262 11.405c5.8177 5.9659 8.8879 9.9507 8.8879 11.536 0 0.75784 1.3693 2.891 3.0429 4.7402 4.0656 4.4924 5.0277 18.97 1.5871 23.882-1.4844 2.1192-2.6988 5.3812-2.6988 7.2489 0 2.0294-1.9815 3.8933-4.9243 4.6319-4.8654 1.2211-4.8769 1.2691-0.96559 4.0087 3.8652 2.7073 5.3991 6.5474 2.5103 6.2843-0.79663-0.072479-5.7936-5.1967-11.104-11.387zm15.15-30.085c-0.629-1.639-1.5578-2.5659-2.064-2.0597-0.50627 0.50626-0.34761 1.8473 0.35255 2.9801 1.9042 3.0812 3.0173 2.4826 1.7114-0.92044zm17.788 37.917c-1.1488-1.8589 13.661-9.8104 18.365-9.8606 2.3207-0.02475 2.3001-0.33313-0.12695-1.9016-2.2818-1.4747-2.3331-1.8784-0.24139-1.9017 1.9175-0.021362 2.3334-1.6395 1.4967-5.8232-0.65358-3.2682-0.33794-5.7936 0.72421-5.7936 1.0356 0 1.883 0.86899 1.883 1.9312 0 1.0621 1.8177 3.7489 4.0394 5.9706l4.0395 4.0394-4.5222 3.1886c-2.4872 1.7536-4.9567 3.1962-5.4878 3.2056-0.53105 0.00943-3.7069 1.9711-7.0573 4.3593-6.4045 4.5651-11.293 5.5293-13.112 2.586zm18.624-46.91c-1.2746-1.2746-2.3175-3.0127-2.3175-3.8624 0-2.8454 2.9087-1.5844 5.3455 2.3175 2.6408 4.2286 0.66414 5.2371-3.028 1.5449zm303.77-2.0277c0.7753-2.3899 2.2016-13.905 3.1693-25.588 1.0419-12.577 2.9909-23.451 4.7777-26.655 2.541-4.5559 2.6577-6.913 0.73908-14.911-1.2672-5.2821-1.6953-12.954-0.96436-17.28 1.1863-7.0222 0.92145-7.7808-2.7176-7.7808-2.2968 0-4.0322-1.2468-4.0322-2.8968 0-3.6505-3.7091-3.6201-8.5891 0.070435-2.0686 1.5644-5.2946 2.3577-7.169 1.7628-1.8744-0.59488-5.086-0.18359-7.1369 0.91403-4.8443 2.5926-13.161-3.648-16.951-12.72-1.477-3.5351-3.7616-6.2136-5.0768-5.9522-1.7089 0.3396-2.3912-3.1916-2.3912-12.375 0-7.0676 0.68375-12.428 1.5195-11.912 0.83578 0.51599 1.3371-1.9573 1.114-5.4962-0.22302-3.5389 1.256-9.476 3.2866-13.194 2.0306-3.7176 3.7031-8.0627 3.7165-9.656 0.013489-1.5932 0.8923-2.775 1.9531-2.6262 2.6578 0.3728 13.028-7.1953 11.692-8.5321-0.59457-0.59454 0.35913-2.6724 2.1193-4.6173 1.7602-1.945 2.5248-3.5364 1.6989-3.5364-0.82578 0-0.30862-1.5208 1.1491-3.3796 2.4022-3.063 2.3339-3.1313-0.72916-0.72911-1.8587 1.4578-3.4882 2.1095-3.6209 1.4484-0.13281-0.66113-0.36957-2.2884-0.52615-3.6161-0.15662-1.3277-1.9107-2.13-3.8978-1.783-3.2026 0.55934-3.4524-0.20831-2.1995-6.7592 0.7774-4.0646 1.339-9.4327 1.248-11.929-0.25787-7.0711 1.5102-8.2396 7.6577-5.0606 5.292 2.7366 5.684 2.6954 5.684-0.5975 0-1.9452-2.1726-6.4816-4.828-10.081-5.7465-7.7888-5.771-7.9001-1.4484-6.5409 3.0581 0.96155 3.0858 0.81799 0.2912-1.509-3.3496-2.7892-3.56-3.3191-3.8948-9.8137-0.16861-3.2698-0.44263-3.5088-1.1073-0.96561-0.48575 1.8588-2.0216 3.3796-3.4131 3.3796-3.5493 0-5.258-7.7131-1.9868-8.9684 1.4437-0.554 2.1486-2.2488 1.5662-3.7662-0.7688-2.0034-0.11475-2.3967 2.3884-1.4361 2.7033 1.0373 3.1712 0.60368 2.1684-2.0096-0.80591-2.1001-0.52411-2.866 0.76196-2.0711 1.1224 0.69368 1.5518 2.5355 0.95416 4.0929-0.59766 1.5574 1.058 6.6731 3.6793 11.368 2.6212 4.6951 4.3276 10.068 3.792 11.94-0.55338 1.9338-0.011688 1.5829 1.2545-0.81259 1.8421-3.4851 1.4795-5.4276-2.0918-11.206-2.376-3.8446-3.9445-7.3657-3.4854-7.8249 1.1378-1.1378 12.401 15.028 14.016 20.117 0.715 2.2526 1.9325 4.0956 2.7056 4.0956 2.9566 0 23.44 45.594 23.44 52.175 0 1.6916-1.4017 1.122-3.9377-1.5999-3.5373-3.7969-7.6495-5.6092-7.6495-3.3714 0 1.3293 8.0171 14.594 8.8206 14.594 0.39282 0 0.16748-1.4248-0.50079-3.1662-0.99713-2.5983-0.57837-2.81 2.3344-1.18 1.9522 1.0925 3.7202 3.6036 3.929 5.5803 0.20892 1.9766 0.93079 6.2011 1.6044 9.3875 0.67358 3.1865 2.4977 14.685 4.0535 25.552 3.0579 21.358 1.5563 48.901-3.9984 73.336-1.4984 6.5912-2.7291 14.847-2.735 18.346-0.018005 10.651-3.7826 21.19-7.9598 22.282-2.0926 0.5473-5.9497 5.2278-8.5712 10.401-4.9553 9.7787-8.1198 12.602-5.6734 5.061zm12.913-185.33c-1.3857-1.3857-2.2853-1.4998-2.2853-0.28969 0 2.5778 2.2839 4.8616 3.5728 3.5727 0.54877-0.54877-0.030579-2.0262-1.2875-3.283zm-5.0876-0.0644c-1.6147-7.3634-8.221-18.792-10.873-18.81-3.5325-0.022736-8.4213 8.0431-7.1629 11.818 0.46979 1.4094 2.5262 2.65 4.5696 2.7569 10.037 0.52504 12.388 0.96979 12.177 2.3034-0.35303 2.2361 0.14374 4.3452 1.0235 4.3452 0.43701 0 0.55646-1.0863 0.26526-2.414zm-271.43 177.03c0-1.6817 1.032-2.7138 2.2933-2.2933 3.5809 1.1936 4.1748 5.351 0.76445 5.351-1.6818 0-3.0578-1.376-3.0578-3.0578zm6.7787-2.7044c-0.66716-1.0795 0.14185-1.9626 1.7978-1.9626 3.3922 0 3.8917 1.1588 1.213 2.8143-0.98877 0.61108-2.3436 0.2279-3.0108-0.85162zm-40.414-5.1359c-1.6168-4.2133 0.52983-6.1716 2.811-2.5645 2.2837 3.6111 2.3323 5.7377 0.13118 5.7377-0.9485 0-2.2726-1.428-2.9422-3.1732zm-16.576-19.941c0-1.0288-1.3035-1.3704-2.8968-0.759-3.5199 1.3507-3.8383-1.9097-0.4603-4.7133 1.8052-1.4981 3.0092-0.80866 4.6463 2.6604 1.2154 2.5754 1.4225 4.6825 0.46028 4.6825s-1.7495-0.84177-1.7495-1.8706zm-37.7-2.4847c-2.1016-1.1585-4.9567-3.6941-6.3447-5.6347-2.6865-3.7564-8.0981-4.8237-8.0981-1.5972 0 1.0622-1.7381 1.9312-3.8624 1.9312s-3.8624-0.86905-3.8624-1.9312-1.7381-1.9312-3.8624-1.9312-3.8624-0.86905-3.8624-1.9312 0.8764-1.9312 1.9476-1.9312c3.8134 0-2.6598-7.3491-9.235-10.485-4.3944-2.0956-6.2363-4.0968-5.5108-5.9875 0.6475-1.6873-0.036751-2.84-1.6858-2.84-1.6738 0-2.3343 1.1499-1.664 2.8968 0.80887 2.1078-0.22852 2.8968-3.809 2.8968-2.7064 0-5.4578-0.86908-6.1142-1.9312-0.65645-1.0622 0.59581-1.9312 2.7828-1.9312s4.085-0.86905 4.2178-1.9312c0.13278-1.0622 0.35002-2.7278 0.4828-3.7015 0.39146-2.8706 3.1382-4.8837 3.1382-2.3 0 1.3018 0.77058 1.8908 1.7124 1.3087 0.94182-0.58203 2.7863 0.23566 4.0989 1.8173 1.3126 1.5815 1.6718 2.8755 0.7982 2.8755-0.87357 0-0.58231 1.006 0.64726 2.2356 1.6933 1.6933 2.9211 1.6667 5.0617-0.10986 2.2678-1.8821 4.6923-1.3998 12.273 2.4418 5.1959 2.633 10.585 6.1585 11.976 7.8347 1.391 1.6761 4.9234 3.0475 7.8498 3.0475 5.376 0 10.695-4.1107 8.3518-6.4541-0.69885-0.69891-0.30812-1.2707 0.86841-1.2707 4.1188 0 4.4618 3.8484 0.70264 7.8834-2.5431 2.7296-5.0672 3.6664-7.6608 2.8432-6.7552-2.144-7.1647 3.0419-0.69644 8.8214 6.3188 5.6458 5.9335 8.6889-0.6412 5.0648zm22.996-5.6559c-0.89819-1.4533-0.34026-1.8335 1.5986-1.0895 1.638 0.62851 3.8551 0.26596 4.9268-0.80572 1.3106-1.3106 2.3733-1.2612 3.246 0.15091 0.71373 1.1547 1.029 2.1641 0.70079 2.243-6.1282 1.4737-9.3481 1.3203-10.472-0.49866zm-86.942-5.736c-0.92072-1.4806-4.0333-4.192-6.9169-6.0253-7.3836-4.6942-10.147-10.297-5.8851-11.933 1.807-0.69342 2.6582-0.63351 1.8917 0.13306-1.9553 1.9552 4.4896 8.644 6.896 7.1569 1.111-0.68671 1.3854-0.27008 0.62854 0.95453-0.81239 1.3144 0.59573 2.6596 3.564 3.4045 5.2914 1.3281 5.7608 2.2686 3.1718 6.3554-1.415 2.2337-1.9367 2.2264-3.35-0.046417zm6.2607-0.5188c0.57986-1.5111 2.3874-3.2591 4.0168-3.8843 2.1237-0.81497 2.6282-0.26569 1.7819 1.9398-0.64935 1.6922-1.1806 3.4401-1.1806 3.8843 0 0.44418-1.2763 0.80765-2.8362 0.80765-1.6591 0-2.3986-1.1402-1.7819-2.7475zm74.142-1.1149c-2.6046-4.8667-0.42806-4.8667 5.7936 0 4.777 3.7366 4.7828 3.777 0.55074 3.8195-2.3525 0.023621-5.2074-1.6951-6.3444-3.8195zm-61.799-0.8516c0-0.46844 0.86903-1.3888 1.9312-2.0452 1.0622-0.65649 1.9312-0.27325 1.9312 0.85162 0 1.1248-0.86904 2.0452-1.9312 2.0452s-1.9312-0.38324-1.9312-0.85159zm6.9194-2.7516c-0.83191-1.3461-0.991-2.9689-0.35358-3.6064 1.7284-1.7284 3.6128 0.8136 2.6793 3.6141-0.65413 1.9625-1.109 1.9609-2.3258-0.007751zm-26.846-7.3112c-0.72406-0.72412-1.4193-5.2996-1.545-10.168-0.19243-7.4536-0.42113-7.9537-1.4484-3.1672-0.67095 3.1262-1.8717 5.5161-2.6683 5.3108-0.79663-0.20532-2.2207-0.37332-3.1647-0.37332-3.923 0-4.1395-13.193-0.36906-22.485 3.7077-9.1374 4.2215-8.9896 4.9925 1.437 0.5482 7.4131 2.7834 9.931 7.9408 8.9451 3.0254-0.57831 4.6016 0.020935 4.6016 1.7494 0 1.446-1.9553 2.684-4.3452 2.7514l-4.3452 0.1224 4.3452 1.7466c2.3899 0.9606 4.3319 2.8609 4.3156 4.2228-0.022774 1.9059-0.41196 1.8727-1.6898-0.14398-0.91315-1.4411-2.146-1.8341-2.7398-0.87338-0.59378 0.96072-0.28119 3.0088 0.69464 4.5514 0.9758 1.5426 1.7189 4.1082 1.6513 5.7014-0.096268 2.2688-0.34987 2.3261-1.1698 0.26425-0.73714-1.8536-1.4453-1.9878-2.3935-0.45374-0.74058 1.1983-1.939 1.5863-2.663 0.86227zm192.13-6.4664c0.97208-2.9162 4.0777-3.2168 4.989-0.48282 0.44254 1.3277-0.64374 2.414-2.414 2.414s-2.929-0.86905-2.575-1.9312zm-162.39-2.7359c-0.083847-2.0358 0.37256-3.1764 1.0143-2.5347 0.64172 0.64172 0.71031 2.3074 0.15243 3.7015-0.61646 1.5406-1.0741 1.083-1.1667-1.1668zm-47.597-11.265c-2.2122-18.099-2.244-18.924-0.76365-19.839 0.75311-0.46542 1.9674 4.5684 2.6983 11.186 0.73097 6.6178 1.8046 13.988 2.3858 16.378 0.58119 2.3899 0.17879 4.3452-0.89426 4.3452s-2.6148-5.4315-3.4262-12.07zm29.921 11.587c-1.4524-4.8864-1.4219-10.141 0.073715-12.705 1.4387-2.4656 1.8974-1.2896 1.9423 4.9798 0.032333 4.5142-0.3758 8.2076-0.90688 8.2076-0.53107 0-1.0302-0.21728-1.1091-0.48279zm87.048-15.974c0-1.616-2.1726-3.9281-4.828-5.1379-4.2015-1.9144-6.6882-5.4423-3.8362-5.4423 1.7808 0 9.5949 4.7804 11.049 6.7592 2.0583 2.8015 1.7929 6.7592-0.45323 6.7592-1.0621 0-1.9312-1.3222-1.9312-2.9383zm-96.56-12.511c-1.4015-2.6187-1.4234-3.8625-0.067917-3.8625 1.0995 0 1.9991-1.3548 1.9991-3.0107s0.86904-2.4737 1.9312-1.8173c2.4763 1.5305 2.5359 12.553 0.067955 12.553-1.0248 0-2.7935-1.7381-3.9304-3.8624zm-9.6265-6.1625c0.016273-1.3904 0.87201-3.8315 1.9016-5.4248 1.522-2.355 1.8776-2.1055 1.9016 1.3345 0.016266 2.3272-0.83948 4.7683-1.9016 5.4248-1.0622 0.65643-1.9179 0.055969-1.9016-1.3344zm-11.866-5.9076c-0.76511-19.269 6.0651-63.446 10.028-64.856 0.99493-0.35406 1.809-2.5941 1.809-4.9779 0-5.2322 8.9839-28.113 12.448-31.704 2.0499-2.1246 2.6804-2.0248 3.6811 0.58312 0.76914 2.0044 0.43931 2.672-0.90844 1.8391-1.4005-0.86554-1.6918 0.028778-0.86146 2.6449 0.84065 2.6487-0.005219 5.1262-2.5642 7.5102-4.0639 3.7861-7.9325 12.33-7.9325 17.518 0 2.6232 0.46685 2.523 2.8354-0.60854 1.5594-2.0618 2.863-6.1386 2.8968-9.0595 0.033775-2.9209 0.93045-5.3108 1.9926-5.3108 3.4917 0 2.017 13.236-2.414 21.667-3.7212 7.0799-4.4338 7.6431-4.9623 3.9218-0.33941-2.3898-1.3244-4.3452-2.1888-4.3452-3.7691 0-5.6188 23.848-2.0221 26.071 3.2124 1.9854 2.3605 9.2684-0.93616 8.0034-4.2545-1.6326-6.2342 3.9566-6.3996 18.068-0.2235 19.069-0.25269 19.312-2.3202 19.312-1.0622 0-2.0434-2.8244-2.1804-6.2764zm18.069-0.3065c0.59337-3.104 0.11348-4.354-1.4424-3.757-3.0605 1.1744-5.7204-14.608-2.9319-17.396 1.3847-1.3847 2.0041-0.27597 2.0041 3.5872 0 3.4186 1.9906 7.6691 5.1224 10.938 4.2781 4.4653 4.7166 5.8357 2.6604 8.3133-3.6801 4.4342-6.4194 3.5814-5.4126-1.6851zm227.06-32.428c1.8025-1.8024 2.8325-1.8024 4.6349 0s1.2875 2.3174-2.3174 2.3174c-3.605 0-4.1199-0.51498-2.3175-2.3174zm11.974 0.2762c0-1.2289 1.2316-1.7618 2.737-1.1841 1.5053 0.57762 3.2373-0.25348 3.8488-1.847 0.67328-1.7546 2.0693-2.3012 3.5395-1.3861 1.3352 0.83118 4.2999 1.2695 6.5883 0.974 2.2884-0.29549 4.7296 0.38309 5.4248 1.508 0.70526 1.141-0.28046 2.0983-2.2295 2.1653-1.9215 0.066055-7.187 0.54404-11.701 1.0622-5.4695 0.62778-8.2076 0.19667-8.2076-1.2923zm26.651-0.2762c1.8025-1.8024 2.8325-1.8024 4.635 0 1.8024 1.8024 1.2874 2.3174-2.3175 2.3174s-4.1199-0.51498-2.3175-2.3174zm-44.56-10.398c-2.9461-1.5978-6.3393-2.2978-7.5404-1.5555-1.3367 0.82614-1.6493 0.48479-0.80585-0.87993 0.87592-1.4173-0.1123-2.2296-2.7124-2.2296-2.2497 0-3.6683 0.68283-3.1526 1.5174 0.51581 0.83456-0.73645 1.5174-2.7828 1.5174-5.137 0-4.6609-2.6891 0.92685-5.2351 3.7499-1.7086 6.92-1.2363 16.415 2.4456 11.568 4.4857 15.046 7.5545 8.3882 7.4022-1.8588-0.042511-5.7901-1.3846-8.7362-2.9825zm172.41-25.794c0-1.1248 0.86908-2.0452 1.9312-2.0452 1.0622 0 1.9312 0.38324 1.9312 0.85164s-0.86905 1.3887-1.9312 2.0452c-1.0622 0.65646-1.9312 0.27327-1.9312-0.85162zm3.8625-35.727c0-0.46838 0.86908-1.3887 1.9312-2.0452 1.0622-0.65645 1.9312-0.27324 1.9312 0.85167 0 1.1248-0.86908 2.0451-1.9312 2.0451s-1.9312-0.38319-1.9312-0.85161zm-382.38-9.5421c0-1.5932 0.86903-3.4339 1.9312-4.0904 1.0622-0.65646 1.9312 0.11003 1.9312 1.7033 0 1.5932-0.86904 3.4339-1.9312 4.0904-1.0622 0.65643-1.9312-0.11002-1.9312-1.7033zm7.7248-0.114c0-0.46838 0.86904-1.3887 1.9312-2.0452 1.0622-0.65646 1.9312-0.27322 1.9312 0.85164s-0.86903 2.0452-1.9312 2.0452-1.9312-0.38319-1.9312-0.85161zm11.587-10.622c0-1.1248 0.86905-2.0452 1.9312-2.0452s1.9312 0.38321 1.9312 0.85164c0 0.4684-0.86903 1.3887-1.9312 2.0452-1.0622 0.65646-1.9312 0.27325-1.9312-0.85162zm2.8529-17.566c-0.65372-1.0577-2.2148-1.3076-3.4691-0.55532-1.2992 0.77921-1.14-0.038254 0.36989-1.8997 2.7563-3.398 8.9712-4.4054 10.629-1.7229 0.52507 0.84959-0.68692 2.5699-2.6933 3.8229-2.3563 1.4715-4.0688 1.5972-4.8365 0.35503zm255.33-27.186c-1.9233-1.1187-4.7928-1.5368-6.3767-0.929-1.6262 0.62402-2.3662 0.27402-1.6999-0.80396 0.64893-1.05 0.11468-1.9091-1.1872-1.9091-4.2813 0 0.088257-2.5567 5.3235-3.1148 6.0141-0.64118 16.766 4.3819 15.111 7.0595-1.4875 2.4068-6.7586 2.264-11.171-0.3026z" fill="#ffffff"/>
</svg>